<svg xmlns="http://www.w3.org/2000/svg" xmlns:xlink="http://www.w3.org/1999/xlink" viewBox="0 0 131.89 131.51"><defs><style>.cls-1,.cls-2,.cls-3,.cls-4,.cls-5,.cls-6,.cls-7,.cls-8{fill-rule:evenodd;}.cls-1{fill:url(#New_Gradient_Swatch_2);}.cls-2{fill:url(#New_Gradient_Swatch_2-2);}.cls-3{fill:url(#New_Gradient_Swatch_1);}.cls-4{fill:url(#New_Gradient_Swatch_1-2);}.cls-5{fill:url(#linear-gradient);}.cls-6{fill:url(#New_Gradient_Swatch_1-3);}.cls-7{fill:url(#New_Gradient_Swatch_1-4);}.cls-8{fill:url(#New_Gradient_Swatch_1-5);}</style><radialGradient id="New_Gradient_Swatch_2" cx="-73.7" cy="-66.28" r="210.32" gradientUnits="userSpaceOnUse"><stop offset="0" stop-color="#fff"/><stop offset="0.5" stop-color="#8ecdb7"/><stop offset="1" stop-color="#22654e"/></radialGradient><radialGradient id="New_Gradient_Swatch_2-2" cx="88.64" cy="-180.28" r="434.83" xlink:href="#New_Gradient_Swatch_2"/><linearGradient id="New_Gradient_Swatch_1" x1="65.7" y1="208.72" x2="65.7" y2="61.05" gradientUnits="userSpaceOnUse"><stop offset="0" stop-color="#71c3a3"/><stop offset="1" stop-color="#71c3a3" stop-opacity="0"/></linearGradient><linearGradient id="New_Gradient_Swatch_1-2" x1="45.42" y1="134.06" x2="45.42" y2="63.19" xlink:href="#New_Gradient_Swatch_1"/><linearGradient id="linear-gradient" x1="38.04" y1="-42.03" x2="38.04" y2="11.78" gradientUnits="userSpaceOnUse"><stop offset="0" stop-color="#323390"/><stop offset="1" stop-color="#323390" stop-opacity="0"/></linearGradient><linearGradient id="New_Gradient_Swatch_1-3" x1="178.05" y1="50.26" x2="39.3" y2="50.26" xlink:href="#New_Gradient_Swatch_1"/><linearGradient id="New_Gradient_Swatch_1-4" x1="157.14" y1="31.45" x2="29.54" y2="31.45" xlink:href="#New_Gradient_Swatch_1"/><linearGradient id="New_Gradient_Swatch_1-5" x1="158.8" y1="19.83" x2="22.29" y2="19.83" xlink:href="#New_Gradient_Swatch_1"/></defs><g id="Layer_2" data-name="Layer 2"><g id="Layer_1-2" data-name="Layer 1"><path class="cls-1" d="M19,71.07A31.77,31.77,0,0,1,2.4,64.91C.42,63.4-1.91,62,2.57,59a74.2,74.2,0,0,0,7-5.32C4.24,61.49,8.87,68.63,19,71.07ZM29.64,37.41A20.36,20.36,0,0,0,41.76,28c-3.4.9-6.54,2.59-9.93,3.49A34.09,34.09,0,0,1,29.64,37.41Z"/><path class="cls-2" d="M96.57,13.77l11.62-2.08C92.31,4.75,75.68,2.55,57.69,6.85A36.82,36.82,0,0,0,29,.72c3.92,3.59,3.74,9.36,8.92,11.84a60.93,60.93,0,0,0-9.71,5.8c-.55,6.53-6.74,16.66-9.59,20.78,8.34-4.91,8.74-11.79,13.77-16.62,7-6.72,20-6.35,28.58-3.19-6.15,2.53-9.12,6.77-11,11.6a44.8,44.8,0,0,1,32.38.51C73,32.38,65.73,36.13,60.68,43,82.44,38.77,94.46,44.84,99,58.83,74.63,48.17,55.93,60,36.6,68.32c33.06-2.79,28.58,38.09-3.25,34.29C18,100.79,4.59,85.59,2.37,69a62.54,62.54,0,1,0,119-26.81l10.49,3.39C122.65,31.57,111.46,20.25,96.57,13.77Z"/><path class="cls-3" d="M95,86.42c5.45-19.51-19.13-31.68-40.62-26-6,2.46-11.86,5.32-17.77,7.87,31.87-7.6,50.08,10.15,33.63,34.42a37.28,37.28,0,0,0,18.24-7.31c-7.94,34.11-50.93,32.86-68.08,17.48a62.63,62.63,0,0,0,61.15,16.35c24.83-10.35,37.24-37.85,24.24-58.11C104.7,77.85,101,82.86,95,86.42Z"/><path class="cls-4" d="M36.6,68.32c33.06-2.79,28.58,38.09-3.25,34.29C18,100.79,4.59,85.59,2.37,69a62.39,62.39,0,0,0,18,44c17.15,15.38,60.14,16.63,68.08-17.48a37.28,37.28,0,0,1-18.24,7.31C86.68,78.47,68.47,60.72,36.6,68.32Z"/><path class="cls-5" d="M37.89,12.56l9.23-3.27C42.26,5.18,35.68.77,29,.72,32.89,4.31,32.71,10.08,37.89,12.56Z"/><path class="cls-6" d="M67.86,42a27.47,27.47,0,0,0-4.53,4.89C81.23,43.34,93,48.57,99,58.83,95,46.46,85.12,40.29,67.86,42Z"/><path class="cls-7" d="M55.49,29.3a24,24,0,0,0-3,5.45,44.82,44.82,0,0,1,23.29-2.09,39.12,39.12,0,0,1,6.46-1.22A44.44,44.44,0,0,0,55.49,29.3Z"/><path class="cls-8" d="M32.36,22.52c8.46-4.27,15-4.27,25.11-1.37a20.59,20.59,0,0,1,3.47-1.82C52.41,16.17,39.37,15.8,32.36,22.52Z"/></g></g></svg>