<?xml version="1.0" standalone="no"?>
<!DOCTYPE svg PUBLIC "-//W3C//DTD SVG 20010904//EN"
 "http://www.w3.org/TR/2001/REC-SVG-20010904/DTD/svg10.dtd">
<svg version="1.0" xmlns="http://www.w3.org/2000/svg"
 width="1080.000000pt" height="1080.000000pt" viewBox="0 0 1080.000000 1080.000000"
 preserveAspectRatio="xMidYMid meet">

<g transform="translate(0.000000,1080.000000) scale(0.100000,-0.100000)"
fill="#000000" stroke="none">
<path d="M7037 6063 c-4 -3 -7 -381 -7 -840 l0 -833 135 0 135 0 0 840 0 840
-128 0 c-71 0 -132 -3 -135 -7z"/>
<path d="M2000 5225 l0 -835 145 0 145 0 0 365 0 365 400 0 400 0 0 -365 0
-365 140 0 140 0 0 835 0 835 -145 0 -145 0 0 -345 0 -345 -395 0 -395 0 -2
343 -3 342 -142 3 -143 3 0 -836z"/>
<path d="M8070 5589 c-129 -21 -262 -98 -335 -194 -90 -117 -136 -261 -137
-425 -2 -359 223 -598 563 -600 132 0 214 34 297 124 24 26 47 45 50 42 3 -4
6 -37 6 -74 l1 -67 143 -3 142 -3 -2 588 -3 588 -135 0 -135 0 -3 -57 c-2 -32
-5 -58 -8 -58 -3 0 -23 18 -45 41 -87 89 -233 125 -399 98z m285 -247 c122
-63 185 -210 172 -400 -16 -228 -107 -338 -291 -350 -172 -11 -289 65 -343
222 -24 72 -24 261 0 332 37 108 99 175 194 210 57 22 216 13 268 -14z"/>
<path d="M5110 5565 c0 -3 16 -27 35 -54 19 -26 35 -60 35 -75 0 -24 -3 -26
-45 -26 -25 0 -45 -1 -45 -2 0 -2 7 -25 16 -53 9 -28 18 -105 21 -175 l5 -125
114 -314 c63 -172 114 -320 114 -327 0 -11 26 -14 123 -14 l122 0 43 123 c24
67 54 151 67 187 13 36 49 137 80 225 31 88 60 167 64 175 5 9 12 30 15 48 4
17 11 34 15 36 4 3 67 -175 141 -395 l133 -399 117 0 117 0 83 218 c45 119
127 334 182 477 55 143 115 301 133 350 18 50 36 98 40 108 7 16 -3 17 -123
17 l-129 0 -18 -57 c-9 -32 -32 -101 -50 -153 -18 -52 -54 -160 -80 -240 -26
-80 -63 -188 -81 -241 -19 -53 -34 -104 -34 -113 0 -37 -22 -7 -45 59 -22 68
-125 388 -200 628 l-37 117 -122 0 -123 0 -62 -187 c-162 -484 -214 -632 -221
-628 -5 3 -15 27 -23 53 -50 157 -212 656 -229 705 l-21 57 -63 0 c-35 0 -64
-2 -64 -5z"/>
<path d="M3644 5181 c7 -11 46 -35 46 -28 0 3 -12 12 -26 22 -15 9 -23 12 -20
6z"/>
</g>
</svg>
